<mxfile host="app.diagrams.net" agent="Mozilla/5.0 (Windows NT 10.0; Win64; x64) AppleWebKit/537.36 (KHTML, like Gecko) Chrome/136.0.0.0 Safari/537.36" version="27.0.5">
  <diagram name="페이지-1" id="ko8HCKPcYdNhpy-_bF4P">
    <mxGraphModel dx="1426" dy="777" grid="1" gridSize="10" guides="1" tooltips="1" connect="1" arrows="1" fold="1" page="1" pageScale="1" pageWidth="827" pageHeight="1169" math="0" shadow="0">
      <root>
        <mxCell id="0" />
        <mxCell id="1" parent="0" />
        <mxCell id="vSQubpPb0N_k_zyhGDpg-1" value="PlayScene&lt;div&gt;+초기&lt;/div&gt;" style="rounded=0;whiteSpace=wrap;html=1;" parent="1" vertex="1">
          <mxGeometry x="380" y="60" width="120" height="60" as="geometry" />
        </mxCell>
        <mxCell id="vSQubpPb0N_k_zyhGDpg-2" value="Hero&lt;div&gt;+이&lt;/div&gt;" style="rounded=0;whiteSpace=wrap;html=1;" parent="1" vertex="1">
          <mxGeometry x="210" y="180" width="120" height="60" as="geometry" />
        </mxCell>
        <mxCell id="vSQubpPb0N_k_zyhGDpg-3" value="InputHandler&lt;div&gt;+입력 알&lt;/div&gt;" style="rounded=0;whiteSpace=wrap;html=1;" parent="1" vertex="1">
          <mxGeometry x="560" y="180" width="120" height="60" as="geometry" />
        </mxCell>
        <mxCell id="vSQubpPb0N_k_zyhGDpg-4" value="Mover&lt;div&gt;+이&lt;/div&gt;" style="rounded=0;whiteSpace=wrap;html=1;" parent="1" vertex="1">
          <mxGeometry x="150" y="360" width="120" height="60" as="geometry" />
        </mxCell>
        <mxCell id="vSQubpPb0N_k_zyhGDpg-5" value="TransformMover&lt;div&gt;이동(Transform)&lt;/div&gt;" style="rounded=0;whiteSpace=wrap;html=1;" parent="1" vertex="1">
          <mxGeometry x="30" y="540" width="120" height="60" as="geometry" />
        </mxCell>
        <mxCell id="vSQubpPb0N_k_zyhGDpg-6" value="Rigidbody2DMover&lt;div&gt;+이동(Rigidbody2D)&lt;/div&gt;" style="rounded=0;whiteSpace=wrap;html=1;" parent="1" vertex="1">
          <mxGeometry x="270" y="540" width="120" height="60" as="geometry" />
        </mxCell>
        <mxCell id="vSQubpPb0N_k_zyhGDpg-7" value="무기&lt;div&gt;+데미지&lt;/div&gt;" style="rounded=0;whiteSpace=wrap;html=1;" parent="1" vertex="1">
          <mxGeometry x="540" y="840" width="120" height="60" as="geometry" />
        </mxCell>
        <mxCell id="vSQubpPb0N_k_zyhGDpg-8" value="발사 무기&lt;div&gt;+ 발사&lt;/div&gt;" style="rounded=0;whiteSpace=wrap;html=1;" parent="1" vertex="1">
          <mxGeometry x="420" y="1000" width="120" height="60" as="geometry" />
        </mxCell>
        <mxCell id="vSQubpPb0N_k_zyhGDpg-9" value="지속 무기&lt;div&gt;+ 지속 공격&lt;/div&gt;" style="rounded=0;whiteSpace=wrap;html=1;" parent="1" vertex="1">
          <mxGeometry x="540" y="1000" width="120" height="60" as="geometry" />
        </mxCell>
        <mxCell id="vSQubpPb0N_k_zyhGDpg-10" value="무기&lt;div&gt;+데미지&lt;/div&gt;" style="rounded=0;whiteSpace=wrap;html=1;" parent="1" vertex="1">
          <mxGeometry x="660" y="1000" width="120" height="60" as="geometry" />
        </mxCell>
      </root>
    </mxGraphModel>
  </diagram>
</mxfile>
